<svg xmlns="http://www.w3.org/2000/svg" xmlns:xlink="http://www.w3.org/1999/xlink" width="1133" zoomAndPan="magnify" viewBox="0 0 850.5 425.249996" height="566" preserveAspectRatio="xMidYMid meet" version="1.0"><defs><clipPath id="f046b01f92"><path d="M 0.5 0 L 849.5 0 L 849.5 424.5 L 0.5 424.5 Z M 0.5 0 " clip-rule="nonzero"/></clipPath><clipPath id="fd9299a776"><path d="M 117.566406 17.101562 L 142.90625 17.101562 L 142.90625 42.441406 L 117.566406 42.441406 Z M 117.566406 17.101562 " clip-rule="nonzero"/></clipPath><clipPath id="bbe949e05e"><path d="M 130.238281 17.101562 C 123.238281 17.101562 117.566406 22.773438 117.566406 29.773438 C 117.566406 36.769531 123.238281 42.441406 130.238281 42.441406 C 137.234375 42.441406 142.90625 36.769531 142.90625 29.773438 C 142.90625 22.773438 137.234375 17.101562 130.238281 17.101562 Z M 130.238281 17.101562 " clip-rule="nonzero"/></clipPath><clipPath id="8ccde82399"><path d="M 11.964844 98.117188 L 29.738281 98.117188 L 29.738281 115.886719 L 11.964844 115.886719 Z M 11.964844 98.117188 " clip-rule="nonzero"/></clipPath><clipPath id="fc79812b3b"><path d="M 20.851562 98.117188 C 15.945312 98.117188 11.964844 102.09375 11.964844 107 C 11.964844 111.90625 15.945312 115.886719 20.851562 115.886719 C 25.757812 115.886719 29.738281 111.90625 29.738281 107 C 29.738281 102.09375 25.757812 98.117188 20.851562 98.117188 Z M 20.851562 98.117188 " clip-rule="nonzero"/></clipPath><clipPath id="df364bb533"><path d="M 11.964844 98.117188 L 29.734375 98.117188 L 29.734375 115.886719 L 11.964844 115.886719 Z M 11.964844 98.117188 " clip-rule="nonzero"/></clipPath><clipPath id="929c8c3033"><path d="M 20.851562 98.117188 C 15.945312 98.117188 11.964844 102.09375 11.964844 107 C 11.964844 111.90625 15.945312 115.886719 20.851562 115.886719 C 25.757812 115.886719 29.734375 111.90625 29.734375 107 C 29.734375 102.09375 25.757812 98.117188 20.851562 98.117188 Z M 20.851562 98.117188 " clip-rule="nonzero"/></clipPath><clipPath id="cbd58e0ae0"><path d="M 208 48 L 297 48 L 297 137 L 208 137 Z M 208 48 " clip-rule="nonzero"/></clipPath><clipPath id="9be92cd95d"><path d="M 228.460938 36.929688 L 316.726562 59.398438 L 297.09375 136.519531 L 208.832031 114.050781 Z M 228.460938 36.929688 " clip-rule="nonzero"/></clipPath><clipPath id="204e870d02"><path d="M 272.53125 48.148438 L 296.964844 136.484375 L 208.832031 114.050781 Z M 272.53125 48.148438 " clip-rule="nonzero"/></clipPath><clipPath id="204b561648"><path d="M 196 36 L 284 36 L 284 125 L 196 125 Z M 196 36 " clip-rule="nonzero"/></clipPath><clipPath id="9b2bc1b6b9"><path d="M 217.65625 24.164062 L 304.898438 48.558594 L 283.53125 124.988281 L 196.285156 100.59375 Z M 217.65625 24.164062 " clip-rule="nonzero"/></clipPath><clipPath id="b12f856ed0"><path d="M 217.65625 24.164062 L 305.234375 48.652344 L 283.808594 125.285156 L 196.230469 100.796875 Z M 217.65625 24.164062 " clip-rule="nonzero"/></clipPath><clipPath id="6ca8c7b3dc"><path d="M 261.445312 36.410156 L 283.808594 125.285156 L 196.230469 100.796875 Z M 261.445312 36.410156 " clip-rule="nonzero"/></clipPath><clipPath id="e44cc2a629"><path d="M 716 36 L 803 36 L 803 120 L 716 120 Z M 716 36 " clip-rule="nonzero"/></clipPath><clipPath id="a7f4a794ad"><path d="M 739.8125 36.929688 L 803.066406 62.859375 L 779.777344 119.675781 L 716.523438 93.746094 Z M 739.8125 36.929688 " clip-rule="nonzero"/></clipPath><clipPath id="a88b289251"><path d="M 739.8125 36.929688 L 802.933594 62.804688 L 779.644531 119.621094 L 716.523438 93.746094 Z M 739.8125 36.929688 " clip-rule="nonzero"/></clipPath><clipPath id="dce23c1c63"><path d="M 728 48 L 815 48 L 815 132 L 728 132 Z M 728 48 " clip-rule="nonzero"/></clipPath><clipPath id="529485c5a9"><path d="M 751.792969 48.910156 L 814.832031 74.75 L 791.546875 131.554688 L 728.507812 105.714844 Z M 751.792969 48.910156 " clip-rule="nonzero"/></clipPath><clipPath id="8a6a505715"><path d="M 751.789062 48.914062 L 816.21875 75.320312 L 792.828125 132.386719 L 728.398438 105.976562 Z M 751.789062 48.914062 " clip-rule="nonzero"/></clipPath><clipPath id="7747e4baf0"><path d="M 751.789062 48.914062 L 814.90625 74.785156 L 791.621094 131.59375 L 728.503906 105.722656 Z M 751.789062 48.914062 " clip-rule="nonzero"/></clipPath><clipPath id="cae43c7751"><path d="M 0.5 255 L 193 255 L 193 364 L 0.5 364 Z M 0.5 255 " clip-rule="nonzero"/></clipPath><clipPath id="b78f2d0b86"><path d="M -0.636719 351.296875 L 181.792969 242.078125 L 196.40625 266.488281 L 13.980469 375.707031 Z M -0.636719 351.296875 " clip-rule="nonzero"/></clipPath><clipPath id="e332979018"><path d="M -0.636719 351.296875 L 181.792969 242.078125 L 196.40625 266.488281 L 13.980469 375.707031 Z M -0.636719 351.296875 " clip-rule="nonzero"/></clipPath><clipPath id="f66e472398"><path d="M 510 57 L 590 57 L 590 119 L 510 119 Z M 510 57 " clip-rule="nonzero"/></clipPath><clipPath id="86b0d29591"><path d="M 522.945312 49.96875 L 596.644531 88.449219 L 577.402344 125.296875 L 503.707031 86.820312 Z M 522.945312 49.96875 " clip-rule="nonzero"/></clipPath><clipPath id="cca8719fcd"><path d="M 578.21875 78.828125 C 588.394531 84.140625 592.335938 96.695312 587.023438 106.871094 C 581.710938 117.046875 569.15625 120.988281 558.980469 115.675781 L 522.132812 96.4375 C 511.957031 91.125 508.015625 78.570312 513.328125 68.394531 C 518.640625 58.21875 531.195312 54.277344 541.371094 59.589844 Z M 578.21875 78.828125 " clip-rule="nonzero"/></clipPath><clipPath id="908e3f7479"><path d="M 510 63 L 590 63 L 590 125 L 510 125 Z M 510 63 " clip-rule="nonzero"/></clipPath><clipPath id="e45d51a6df"><path d="M 522.945312 56.277344 L 596.613281 94.738281 L 577.210938 131.902344 L 503.542969 93.441406 Z M 522.945312 56.277344 " clip-rule="nonzero"/></clipPath><clipPath id="42536a3d6c"><path d="M 522.945312 56.277344 L 596.636719 94.75 L 577.398438 131.59375 L 503.710938 93.121094 Z M 522.945312 56.277344 " clip-rule="nonzero"/></clipPath><clipPath id="23ce2451e3"><path d="M 578.214844 85.128906 C 588.386719 90.441406 592.328125 102.996094 587.015625 113.171875 C 581.703125 123.34375 569.152344 127.285156 558.976562 121.972656 L 522.132812 102.738281 C 511.957031 97.425781 508.015625 84.871094 513.328125 74.699219 C 518.640625 64.523438 531.195312 60.582031 541.367188 65.894531 Z M 578.214844 85.128906 " clip-rule="nonzero"/></clipPath><clipPath id="ccb3f5bd4d"><path d="M 137 301 L 217 301 L 217 394 L 137 394 Z M 137 301 " clip-rule="nonzero"/></clipPath><clipPath id="e0f71a5a03"><path d="M 255.363281 370.929688 L 175.988281 415.597656 L 136.960938 346.246094 L 216.335938 301.578125 Z M 255.363281 370.929688 " clip-rule="nonzero"/></clipPath><clipPath id="899014590a"><path d="M 215.734375 393.230469 L 137.078125 346.183594 L 216.335938 301.578125 Z M 215.734375 393.230469 " clip-rule="nonzero"/></clipPath><clipPath id="711c1855a1"><path d="M 717 163 L 805 163 L 805 252 L 717 252 Z M 717 163 " clip-rule="nonzero"/></clipPath><clipPath id="d7a6cc9948"><path d="M 738.628906 150.996094 L 825.871094 175.390625 L 804.5 251.820312 L 717.257812 227.425781 Z M 738.628906 150.996094 " clip-rule="nonzero"/></clipPath><clipPath id="f4dd57b819"><path d="M 738.628906 150.996094 L 826.207031 175.484375 L 804.78125 252.117188 L 717.203125 227.628906 Z M 738.628906 150.996094 " clip-rule="nonzero"/></clipPath><clipPath id="e71b01a0ec"><path d="M 782.417969 163.242188 L 804.78125 252.117188 L 717.203125 227.628906 Z M 782.417969 163.242188 " clip-rule="nonzero"/></clipPath><clipPath id="78bba09edb"><path d="M 44 171 L 123 171 L 123 232 L 44 232 Z M 44 171 " clip-rule="nonzero"/></clipPath><clipPath id="1249718d55"><path d="M 56.542969 163.898438 L 130.207031 202.363281 L 110.804688 239.527344 L 37.136719 201.066406 Z M 56.542969 163.898438 " clip-rule="nonzero"/></clipPath><clipPath id="89a10ba499"><path d="M 56.542969 163.898438 L 130.230469 202.371094 L 110.992188 239.214844 L 37.304688 200.742188 Z M 56.542969 163.898438 " clip-rule="nonzero"/></clipPath><clipPath id="a1fca3c9d2"><path d="M 111.808594 192.753906 C 121.980469 198.066406 125.921875 210.621094 120.609375 220.792969 C 115.300781 230.96875 102.746094 234.910156 92.570312 229.597656 L 55.726562 210.363281 C 45.550781 205.050781 41.609375 192.496094 46.921875 182.320312 C 52.234375 172.148438 64.789062 168.207031 74.964844 173.519531 Z M 111.808594 192.753906 " clip-rule="nonzero"/></clipPath><clipPath id="225fc62678"><path d="M 771.707031 375.46875 L 796.054688 375.46875 L 796.054688 399.816406 L 771.707031 399.816406 Z M 771.707031 375.46875 " clip-rule="nonzero"/></clipPath><clipPath id="1d3ce9f0ed"><path d="M 783.882812 375.46875 C 777.160156 375.46875 771.707031 380.917969 771.707031 387.644531 C 771.707031 394.367188 777.160156 399.816406 783.882812 399.816406 C 790.605469 399.816406 796.054688 394.367188 796.054688 387.644531 C 796.054688 380.917969 790.605469 375.46875 783.882812 375.46875 Z M 783.882812 375.46875 " clip-rule="nonzero"/></clipPath><clipPath id="13868bba57"><path d="M 771.707031 375.46875 L 796.050781 375.46875 L 796.050781 399.8125 L 771.707031 399.8125 Z M 771.707031 375.46875 " clip-rule="nonzero"/></clipPath><clipPath id="540571fc6f"><path d="M 783.878906 375.46875 C 777.15625 375.46875 771.707031 380.917969 771.707031 387.640625 C 771.707031 394.363281 777.15625 399.8125 783.878906 399.8125 C 790.601562 399.8125 796.050781 394.363281 796.050781 387.640625 C 796.050781 380.917969 790.601562 375.46875 783.878906 375.46875 Z M 783.878906 375.46875 " clip-rule="nonzero"/></clipPath><clipPath id="6cbfb9c0a5"><path d="M 484.714844 362.300781 L 510.054688 362.300781 L 510.054688 387.640625 L 484.714844 387.640625 Z M 484.714844 362.300781 " clip-rule="nonzero"/></clipPath><clipPath id="417a175d9c"><path d="M 497.382812 362.300781 C 490.386719 362.300781 484.714844 367.972656 484.714844 374.96875 C 484.714844 381.964844 490.386719 387.640625 497.382812 387.640625 C 504.382812 387.640625 510.054688 381.964844 510.054688 374.96875 C 510.054688 367.972656 504.382812 362.300781 497.382812 362.300781 Z M 497.382812 362.300781 " clip-rule="nonzero"/></clipPath></defs><g clip-path="url(#f046b01f92)"><path fill="#ffffff" d="M 0.5 0 L 849.5 0 L 849.5 424.5 L 0.5 424.5 Z M 0.5 0 " fill-opacity="1" fill-rule="nonzero"/><path fill="#f2f2f3" d="M 0.5 0 L 849.5 0 L 849.5 424.5 L 0.5 424.5 Z M 0.5 0 " fill-opacity="1" fill-rule="nonzero"/></g><g clip-path="url(#fd9299a776)"><g clip-path="url(#bbe949e05e)"><path stroke-linecap="butt" transform="matrix(0.74868, 0, 0, 0.74868, 117.567556, 17.102647)" fill="none" stroke-linejoin="miter" d="M 16.924097 -0.00144886 C 7.574302 -0.00144886 -0.00153576 7.574389 -0.00153576 16.924184 C -0.00153576 26.268761 7.574302 33.844599 16.924097 33.844599 C 26.268674 33.844599 33.844512 26.268761 33.844512 16.924184 C 33.844512 7.574389 26.268674 -0.00144886 16.924097 -0.00144886 Z M 16.924097 -0.00144886 " stroke="#000000" stroke-width="8" stroke-opacity="1" stroke-miterlimit="4"/></g></g><g clip-path="url(#8ccde82399)"><g clip-path="url(#fc79812b3b)"><path fill="#000000" d="M 11.964844 98.117188 L 29.738281 98.117188 L 29.738281 115.886719 L 11.964844 115.886719 Z M 11.964844 98.117188 " fill-opacity="1" fill-rule="nonzero"/></g></g><g clip-path="url(#df364bb533)"><g clip-path="url(#929c8c3033)"><path stroke-linecap="butt" transform="matrix(0.74868, 0, 0, 0.74868, 11.965808, 98.115597)" fill="none" stroke-linejoin="miter" d="M 11.868568 0.00212477 C 5.315364 0.00212477 -0.00128835 5.313559 -0.00128835 11.866764 C -0.00128835 18.419968 5.315364 23.73662 11.868568 23.73662 C 18.421773 23.73662 23.733207 18.419968 23.733207 11.866764 C 23.733207 5.313559 18.421773 0.00212477 11.868568 0.00212477 Z M 11.868568 0.00212477 " stroke="#000000" stroke-width="8" stroke-opacity="1" stroke-miterlimit="4"/></g></g><g clip-path="url(#cbd58e0ae0)"><g clip-path="url(#9be92cd95d)"><g clip-path="url(#204e870d02)"><path fill="#38383b" d="M 228.460938 36.929688 L 316.726562 59.398438 L 297.09375 136.519531 L 208.832031 114.050781 Z M 228.460938 36.929688 " fill-opacity="1" fill-rule="nonzero"/></g></g></g><g clip-path="url(#204b561648)"><g clip-path="url(#9b2bc1b6b9)"><g clip-path="url(#b12f856ed0)"><g clip-path="url(#6ca8c7b3dc)"><path stroke-linecap="butt" transform="matrix(0.721026, 0.201599, -0.201599, 0.721026, 217.656914, 24.165667)" fill="none" stroke-linejoin="miter" d="M 60.7311 0.00162826 L 121.463166 106.282743 L -0.00049156 106.28086 Z M 60.7311 0.00162826 " stroke="#000000" stroke-width="8" stroke-opacity="1" stroke-miterlimit="4"/></g></g></g></g><g clip-path="url(#e44cc2a629)"><g clip-path="url(#a7f4a794ad)"><g clip-path="url(#a88b289251)"><path fill="#38383b" d="M 739.8125 36.929688 L 802.84375 62.769531 L 779.554688 119.585938 L 716.523438 93.746094 Z M 739.8125 36.929688 " fill-opacity="1" fill-rule="nonzero"/></g></g></g><g clip-path="url(#dce23c1c63)"><g clip-path="url(#529485c5a9)"><g clip-path="url(#8a6a505715)"><g clip-path="url(#7747e4baf0)"><path stroke-linecap="butt" transform="matrix(0.692742, 0.283954, -0.283954, 0.692742, 751.79068, 48.912581)" fill="none" stroke-linejoin="miter" d="M -0.00124839 0.00265019 L 91.110608 0.00199678 L 91.111331 82.007123 L -0.000525541 82.007777 Z M -0.00124839 0.00265019 " stroke="#000000" stroke-width="8" stroke-opacity="1" stroke-miterlimit="4"/></g></g></g></g><g clip-path="url(#cae43c7751)"><g clip-path="url(#b78f2d0b86)"><g clip-path="url(#e332979018)"><path fill="#38383b" d="M 159.375 255.492188 L 148.941406 283.628906 L 119.214844 279.535156 L 108.78125 307.671875 L 79.054688 303.578125 L 68.625 331.714844 L 38.898438 327.621094 L 28.46875 355.753906 L 0.164062 351.855469 L 4.976562 359.894531 L 33.28125 363.789062 L 43.710938 335.65625 L 73.4375 339.75 L 83.867188 311.613281 L 113.59375 315.707031 L 124.023438 287.574219 L 153.75 291.664062 L 164.183594 263.527344 L 191.007812 267.21875 L 192.003906 259.984375 L 159.375 255.492188 " fill-opacity="1" fill-rule="nonzero"/></g></g></g><g clip-path="url(#f66e472398)"><g clip-path="url(#86b0d29591)"><g clip-path="url(#cca8719fcd)"><path fill="#38383b" d="M 522.945312 49.96875 L 596.644531 88.449219 L 577.402344 125.296875 L 503.707031 86.820312 Z M 522.945312 49.96875 " fill-opacity="1" fill-rule="nonzero"/></g></g></g><g clip-path="url(#908e3f7479)"><g clip-path="url(#e45d51a6df)"><g clip-path="url(#42536a3d6c)"><g clip-path="url(#23ce2451e3)"><path stroke-linecap="butt" transform="matrix(0.663668, 0.346505, -0.346505, 0.663668, 522.947016, 56.275702)" fill="none" stroke-linejoin="miter" d="M 83.274789 -0.002919 C 98.602592 -0.000903745 111.030402 12.427581 111.030801 27.760009 C 111.028786 43.087812 98.604927 55.513207 83.272498 55.513606 L 27.758388 55.515941 C 12.425959 55.51634 -0.00185014 43.087856 0.000165122 27.760053 C -0.0002344 12.427624 12.42825 -0.000185192 27.756053 0.00183007 Z M 83.274789 -0.002919 " stroke="#000000" stroke-width="8" stroke-opacity="1" stroke-miterlimit="4"/></g></g></g></g><g clip-path="url(#ccb3f5bd4d)"><g clip-path="url(#e0f71a5a03)"><g clip-path="url(#899014590a)"><path fill="#38383b" d="M 255.363281 370.929688 L 175.988281 415.597656 L 136.960938 346.246094 L 216.335938 301.578125 Z M 255.363281 370.929688 " fill-opacity="1" fill-rule="nonzero"/></g></g></g><g clip-path="url(#711c1855a1)"><g clip-path="url(#d7a6cc9948)"><g clip-path="url(#f4dd57b819)"><g clip-path="url(#e71b01a0ec)"><path stroke-linecap="butt" transform="matrix(0.721026, 0.201599, -0.201599, 0.721026, 738.628726, 150.996931)" fill="none" stroke-linejoin="miter" d="M 60.732462 0.00231165 L 121.464528 106.283427 L 0.000870083 106.281544 Z M 60.732462 0.00231165 " stroke="#000000" stroke-width="8" stroke-opacity="1" stroke-miterlimit="4"/></g></g></g></g><g clip-path="url(#78bba09edb)"><g clip-path="url(#1249718d55)"><g clip-path="url(#89a10ba499)"><g clip-path="url(#a1fca3c9d2)"><path stroke-linecap="butt" transform="matrix(0.663668, 0.346505, -0.346505, 0.663668, 56.541333, 163.899706)" fill="none" stroke-linejoin="miter" d="M 83.274733 -0.00138882 C 98.602537 0.000626439 111.030346 12.429111 111.028331 27.756914 C 111.033355 43.086928 98.604871 55.514737 83.272442 55.515137 L 27.758332 55.517471 C 12.425903 55.51787 -0.00190582 43.089386 -0.00230534 27.756958 C -0.000290082 12.429154 12.428194 0.00134499 27.760623 0.00094547 Z M 83.274733 -0.00138882 " stroke="#000000" stroke-width="8" stroke-opacity="1" stroke-miterlimit="4"/></g></g></g></g><g clip-path="url(#225fc62678)"><g clip-path="url(#1d3ce9f0ed)"><path fill="#000000" d="M 771.707031 375.46875 L 796.054688 375.46875 L 796.054688 399.816406 L 771.707031 399.816406 Z M 771.707031 375.46875 " fill-opacity="1" fill-rule="nonzero"/></g></g><g clip-path="url(#13868bba57)"><g clip-path="url(#540571fc6f)"><path stroke-linecap="butt" transform="matrix(0.74868, 0, 0, 0.74868, 771.708119, 375.46891)" fill="none" stroke-linejoin="miter" d="M 16.256337 -0.000214058 C 7.276987 -0.000214058 -0.00145296 7.278225 -0.00145296 16.257576 C -0.00145296 25.236927 7.276987 32.515367 16.256337 32.515367 C 25.235688 32.515367 32.514128 25.236927 32.514128 16.257576 C 32.514128 7.278225 25.235688 -0.000214058 16.256337 -0.000214058 Z M 16.256337 -0.000214058 " stroke="#000000" stroke-width="8" stroke-opacity="1" stroke-miterlimit="4"/></g></g><g clip-path="url(#6cbfb9c0a5)"><g clip-path="url(#417a175d9c)"><path stroke-linecap="butt" transform="matrix(0.74868, 0, 0, 0.74868, 484.714863, 362.300663)" fill="none" stroke-linejoin="miter" d="M 16.92039 0.000158523 C 7.575813 0.000158523 -0.0000255584 7.575997 -0.0000255584 16.920574 C -0.0000255584 26.265151 7.575813 33.846207 16.92039 33.846207 C 26.264967 33.846207 33.846023 26.265151 33.846023 16.920574 C 33.846023 7.575997 26.264967 0.000158523 16.92039 0.000158523 Z M 16.92039 0.000158523 " stroke="#000000" stroke-width="8" stroke-opacity="1" stroke-miterlimit="4"/></g></g></svg>