<?xml version="1.0" standalone="no"?><svg xmlns="http://www.w3.org/2000/svg" viewBox="0 0 1440 320"><path fill="#f2f2f3" fill-opacity="1" d="M0,64L24,58.7C48,53,96,43,144,64C192,85,240,139,288,144C336,149,384,107,432,117.3C480,128,528,192,576,213.3C624,235,672,213,720,176C768,139,816,85,864,80C912,75,960,117,1008,160C1056,203,1104,245,1152,266.7C1200,288,1248,288,1296,245.3C1344,203,1392,117,1416,74.7L1440,32L1440,320L1416,320C1392,320,1344,320,1296,320C1248,320,1200,320,1152,320C1104,320,1056,320,1008,320C960,320,912,320,864,320C816,320,768,320,720,320C672,320,624,320,576,320C528,320,480,320,432,320C384,320,336,320,288,320C240,320,192,320,144,320C96,320,48,320,24,320L0,320Z"></path></svg>